<svg xmlns="http://www.w3.org/2000/svg" xmlns:xlink="http://www.w3.org/1999/xlink" width="3000" zoomAndPan="magnify" viewBox="0 0 2250 749.999995" height="1000" preserveAspectRatio="xMidYMid meet" version="1.0"><defs><g/><clipPath id="75499728c7"><path d="M 648 87 L 1885 87 L 1885 283 L 648 283 Z M 648 87 " clip-rule="nonzero"/></clipPath><clipPath id="d79291e11f"><path d="M 637.691406 82.636719 L 1872.429688 -0.0117188 L 1889.460938 254.417969 L 654.722656 337.070312 Z M 637.691406 82.636719 " clip-rule="nonzero"/></clipPath><clipPath id="e38d83f8d3"><path d="M 654.738281 337.253906 L 1889.472656 254.605469 L 1872.441406 0.171875 L 637.707031 82.824219 Z M 654.738281 337.253906 " clip-rule="nonzero"/></clipPath></defs><g fill="#ffffff" fill-opacity="1"><g transform="translate(161.724682, 467.377647)"><g><path d="M 180.640625 -90.515625 C 183.390625 -92.140625 186.078125 -93.390625 188.703125 -94.265625 C 191.328125 -95.140625 193.046875 -95.078125 193.859375 -94.078125 C 194.671875 -93.078125 193.578125 -90.828125 190.578125 -87.328125 C 181.210938 -76.578125 170 -66.734375 156.9375 -57.796875 C 143.882812 -48.867188 130.488281 -41.347656 116.75 -35.234375 C 106 -30.359375 94.660156 -26.484375 82.734375 -23.609375 C 70.804688 -20.734375 59 -20.109375 47.3125 -21.734375 C 35.632812 -23.359375 24.984375 -28.546875 15.359375 -37.296875 C 0.742188 -50.785156 -5.3125 -67.273438 -2.8125 -86.765625 C -0.6875 -102.253906 5.335938 -115.398438 15.265625 -126.203125 C 25.203125 -137.015625 37.726562 -144.359375 52.84375 -148.234375 C 65.457031 -150.972656 78.078125 -151.285156 90.703125 -149.171875 C 96.441406 -148.296875 101.6875 -146.359375 106.4375 -143.359375 C 110.8125 -139.984375 113.21875 -136.046875 113.65625 -131.546875 C 114.09375 -127.046875 112.375 -122.738281 108.5 -118.625 C 100.5 -111.5 91.253906 -107.25 80.765625 -105.875 C 69.023438 -103.875 57.21875 -102.625 45.34375 -102.125 C 39.601562 -102.125 35.578125 -100.9375 33.265625 -98.5625 C 30.953125 -96.195312 29.609375 -92.140625 29.234375 -86.390625 C 27.359375 -70.773438 32.351562 -58.03125 44.21875 -48.15625 C 51.59375 -42.289062 60.554688 -39.789062 71.109375 -40.65625 C 81.671875 -41.53125 92.882812 -44.375 104.75 -49.1875 C 116.625 -54 128.242188 -59.617188 139.609375 -66.046875 C 150.972656 -72.484375 161.21875 -78.578125 170.34375 -84.328125 C 174.21875 -86.828125 177.648438 -88.890625 180.640625 -90.515625 Z M 50.40625 -123.859375 C 50.40625 -123.609375 50.21875 -123.484375 49.84375 -123.484375 C 49.34375 -122.992188 48.6875 -122.40625 47.875 -121.71875 C 47.0625 -121.03125 46.3125 -120.34375 45.625 -119.65625 C 44.9375 -118.96875 44.59375 -118.5 44.59375 -118.25 C 44.84375 -117.375 47.09375 -117.15625 51.34375 -117.59375 C 55.59375 -118.03125 60.273438 -118.78125 65.390625 -119.84375 C 70.515625 -120.90625 74.796875 -122.335938 78.234375 -124.140625 C 81.671875 -125.953125 82.703125 -128.109375 81.328125 -130.609375 C 80.703125 -131.359375 79.921875 -132.015625 78.984375 -132.578125 C 78.046875 -133.140625 77.015625 -133.546875 75.890625 -133.796875 C 70.898438 -133.796875 66.34375 -132.828125 62.21875 -130.890625 C 58.09375 -128.953125 54.15625 -126.609375 50.40625 -123.859375 Z M 50.40625 -123.859375 "/></g></g><g transform="translate(343.118329, 467.377647)"><g><path d="M 212.03125 -96.3125 C 208.59375 -85.820312 201.785156 -73.800781 191.609375 -60.25 C 181.429688 -46.695312 168.71875 -37.984375 153.46875 -34.109375 C 138.226562 -30.234375 125.046875 -30.757812 113.921875 -35.6875 C 102.804688 -40.625 96.691406 -53.835938 95.578125 -75.328125 C 82.953125 -50.847656 70.921875 -35.171875 59.484375 -28.296875 C 48.054688 -21.421875 36.160156 -18.796875 23.796875 -20.421875 C 9.804688 -22.671875 0.34375 -28.101562 -4.59375 -36.71875 C -9.53125 -45.34375 -11.1875 -55.304688 -9.5625 -66.609375 C -7.9375 -77.921875 -4.5 -88.757812 0.75 -99.125 C 4.875 -106.875 10.585938 -114.054688 17.890625 -120.671875 C 25.203125 -127.296875 32.859375 -132.484375 40.859375 -136.234375 C 50.722656 -141.234375 60.648438 -143.609375 70.640625 -143.359375 C 80.640625 -143.109375 91.320312 -139.796875 102.6875 -133.421875 C 102.9375 -133.171875 103.0625 -133.421875 103.0625 -134.171875 C 103.0625 -135.296875 103.34375 -136.703125 103.90625 -138.390625 C 104.46875 -140.078125 105.4375 -141.421875 106.8125 -142.421875 C 110.5625 -145.171875 114.992188 -146.546875 120.109375 -146.546875 C 125.234375 -146.546875 129.171875 -143.984375 131.921875 -138.859375 C 132.421875 -132.234375 131.734375 -123.800781 129.859375 -113.5625 C 125.734375 -91.070312 125.734375 -74.890625 129.859375 -65.015625 C 133.984375 -55.148438 141.257812 -50.5625 151.6875 -51.25 C 162.125 -51.9375 175.648438 -62.242188 192.265625 -82.171875 C 208.878906 -102.097656 215.46875 -106.8125 212.03125 -96.3125 Z M 27.546875 -43.46875 C 33.296875 -39.351562 39.882812 -39.914062 47.3125 -45.15625 C 54.75 -50.40625 61.898438 -57.835938 68.765625 -67.453125 C 75.640625 -77.078125 81.421875 -86.695312 86.109375 -96.3125 C 90.796875 -105.9375 93.390625 -113.0625 93.890625 -117.6875 C 79.890625 -125.175781 67.890625 -126.453125 57.890625 -121.515625 C 47.898438 -116.585938 39.9375 -108.53125 34 -97.34375 C 28.070312 -86.164062 24.546875 -75.296875 23.421875 -64.734375 C 22.296875 -54.179688 23.671875 -47.09375 27.546875 -43.46875 Z M 27.546875 -43.46875 "/></g></g><g transform="translate(541.75187, 467.377647)"><g><path d="M 113.75 -102.3125 C 113.75 -99.4375 107.6875 -94.34375 95.5625 -87.03125 C 83.445312 -79.726562 74.515625 -74.234375 68.765625 -70.546875 C 63.023438 -66.867188 60.15625 -64.59375 60.15625 -63.71875 C 61.28125 -61.21875 62.46875 -57.03125 63.71875 -51.15625 C 64.96875 -45.28125 65.4375 -38.90625 65.125 -32.03125 C 64.8125 -25.164062 62.59375 -19.046875 58.46875 -13.671875 C 54.34375 -8.304688 47.472656 -5.0625 37.859375 -3.9375 C 28.234375 -3.1875 19.640625 -4.648438 12.078125 -8.328125 C 4.523438 -12.015625 -0.21875 -17.359375 -2.15625 -24.359375 C -4.09375 -31.359375 -1.75 -39.539062 4.875 -48.90625 C 9.25 -54.15625 14.492188 -58.71875 20.609375 -62.59375 C 22.734375 -63.96875 24.921875 -65.46875 27.171875 -67.09375 C 19.796875 -75.082031 12.796875 -83.257812 6.171875 -91.625 C -0.441406 -100 -4.6875 -107.5 -6.5625 -114.125 C -8.5625 -121.738281 -7.28125 -128.921875 -2.71875 -135.671875 C 1.84375 -142.421875 9.742188 -146.359375 20.984375 -147.484375 C 26.484375 -147.984375 31.632812 -147.703125 36.4375 -146.640625 C 41.25 -145.578125 45.71875 -143.234375 49.84375 -139.609375 C 50.71875 -138.734375 51.34375 -137.765625 51.71875 -136.703125 C 52.09375 -135.640625 51.90625 -134.296875 51.15625 -132.671875 C 49.78125 -130.171875 47.71875 -128.921875 44.96875 -128.921875 C 42.96875 -128.921875 41.035156 -129.171875 39.171875 -129.671875 C 37.171875 -130.546875 35.359375 -131.359375 33.734375 -132.109375 C 32.609375 -132.734375 31.546875 -133.296875 30.546875 -133.796875 C 26.921875 -135.171875 24.140625 -134.984375 22.203125 -133.234375 C 20.265625 -131.484375 19.296875 -128.796875 19.296875 -125.171875 C 19.546875 -118.804688 22.171875 -112 27.171875 -104.75 C 32.171875 -97.507812 37.101562 -90.828125 41.96875 -84.703125 C 43.96875 -82.578125 45.65625 -80.515625 47.03125 -78.515625 C 48.40625 -77.140625 52.03125 -77.359375 57.90625 -79.171875 C 63.78125 -80.984375 74.554688 -86.007812 90.234375 -94.25 C 105.910156 -102.5 113.75 -105.1875 113.75 -102.3125 Z M 29.984375 -17.984375 C 33.609375 -18.234375 35.984375 -20.234375 37.109375 -23.984375 C 38.234375 -27.734375 38.640625 -31.851562 38.328125 -36.34375 C 38.015625 -40.84375 37.734375 -44.21875 37.484375 -46.46875 C 36.984375 -47.84375 36.109375 -48.71875 34.859375 -49.09375 C 33.609375 -49.46875 32.421875 -49.40625 31.296875 -48.90625 C 27.171875 -45.65625 24.140625 -41.53125 22.203125 -36.53125 C 20.265625 -31.539062 20.421875 -27.171875 22.671875 -23.421875 C 23.421875 -22.046875 24.421875 -20.859375 25.671875 -19.859375 C 26.921875 -18.859375 28.359375 -18.234375 29.984375 -17.984375 Z M 29.984375 -17.984375 "/></g></g><g transform="translate(642.755149, 467.377647)"><g><path d="M 211.5625 -94.640625 C 215.9375 -94.390625 216.6875 -92.203125 213.8125 -88.078125 C 210.9375 -83.953125 206.0625 -78.734375 199.1875 -72.421875 C 192.320312 -66.117188 184.894531 -59.53125 176.90625 -52.65625 C 166.15625 -43.539062 157.46875 -35.671875 150.84375 -29.046875 C 143.476562 -22.796875 137.515625 -14.109375 132.953125 -2.984375 C 128.390625 8.128906 126.109375 18.367188 126.109375 27.734375 C 126.109375 32.734375 126.109375 38.664062 126.109375 45.53125 C 126.359375 59.53125 126.359375 76.363281 126.109375 96.03125 C 125.859375 115.707031 124.765625 136.039062 122.828125 157.03125 C 120.898438 178.019531 117.40625 197.726562 112.34375 216.15625 C 107.28125 234.582031 100.0625 249.632812 90.6875 261.3125 C 81.320312 273 69.394531 279.40625 54.90625 280.53125 C 27.050781 281.28125 7.9375 269.722656 -2.4375 245.859375 C -10.425781 225.742188 -13.109375 205.128906 -10.484375 184.015625 C -7.867188 162.898438 -1.972656 142.285156 7.203125 122.171875 C 16.390625 102.066406 26.757812 83.578125 38.3125 66.703125 C 49.875 49.835938 60.742188 35.691406 70.921875 24.265625 C 81.109375 12.835938 88.390625 5.1875 92.765625 1.3125 C 94.640625 -4.9375 95.726562 -12.179688 96.03125 -20.421875 C 96.34375 -28.671875 96.375 -36.664062 96.125 -44.40625 C 95.757812 -46.90625 95.578125 -49.09375 95.578125 -50.96875 C 90.078125 -42.476562 84.390625 -36.515625 78.515625 -33.078125 C 72.640625 -29.640625 66.734375 -27.765625 60.796875 -27.453125 C 54.867188 -27.140625 49.28125 -27.296875 44.03125 -27.921875 C 43.53125 -27.921875 43.03125 -27.921875 42.53125 -27.921875 C 30.414062 -29.546875 20.859375 -35.226562 13.859375 -44.96875 C 6.867188 -54.71875 2.34375 -65.835938 0.28125 -78.328125 C -1.78125 -90.816406 -1.25 -102.023438 1.875 -111.953125 C 5 -121.890625 10.679688 -127.671875 18.921875 -129.296875 C 22.296875 -130.171875 26.046875 -130.609375 30.171875 -130.609375 C 34.296875 -130.609375 37.726562 -130.046875 40.46875 -128.921875 C 43.21875 -127.796875 44.15625 -125.738281 43.28125 -122.75 C 40.789062 -112.5 39.359375 -101.40625 38.984375 -89.46875 C 38.609375 -77.539062 39.632812 -67.171875 42.0625 -58.359375 C 44.5 -49.554688 48.875 -44.8125 55.1875 -44.125 C 61.5 -43.4375 69.898438 -49.15625 80.390625 -61.28125 C 85.390625 -67.644531 88.828125 -74.171875 90.703125 -80.859375 C 92.578125 -87.546875 94.078125 -94.757812 95.203125 -102.5 C 95.453125 -105.25 95.882812 -108 96.5 -110.75 C 96.75 -113.5 97.125 -116.25 97.625 -119 C 98 -122.613281 98.4375 -126.171875 98.9375 -129.671875 C 100.3125 -135.421875 103.53125 -139.421875 108.59375 -141.671875 C 113.65625 -143.921875 119.117188 -143.671875 124.984375 -140.921875 C 127.984375 -139.171875 129.734375 -136.671875 130.234375 -133.421875 C 130.859375 -127.046875 131.171875 -120.738281 131.171875 -114.5 C 130.796875 -92.257812 130.609375 -64.898438 130.609375 -32.421875 C 130.984375 -32.671875 133.734375 -34.984375 138.859375 -39.359375 C 145.484375 -45.472656 153.882812 -52.773438 164.0625 -61.265625 C 174.238281 -69.765625 183.851562 -77.390625 192.90625 -84.140625 C 201.96875 -90.890625 208.1875 -94.390625 211.5625 -94.640625 Z M 89.390625 95.765625 C 89.390625 92.765625 89.578125 89.640625 89.953125 86.390625 C 90.203125 74.515625 90.578125 62.519531 91.078125 50.40625 C 91.078125 49.90625 90.890625 49.25 90.515625 48.4375 C 90.140625 47.625 89.640625 47.03125 89.015625 46.65625 C 87.640625 45.65625 86.484375 45.5 85.546875 46.1875 C 84.609375 46.875 83.703125 47.59375 82.828125 48.34375 C 71.335938 63.207031 60.5 80.039062 50.3125 98.84375 C 40.132812 117.644531 32.171875 137.226562 26.421875 157.59375 C 20.671875 177.957031 18.296875 197.882812 19.296875 217.375 C 20.171875 229.488281 24.046875 240.609375 30.921875 250.734375 C 39.160156 262.097656 46.375 266.1875 52.5625 263 C 58.75 259.820312 63.960938 251.984375 68.203125 239.484375 C 72.453125 226.992188 75.953125 212.285156 78.703125 195.359375 C 81.453125 178.429688 83.578125 161.878906 85.078125 145.703125 C 86.578125 129.523438 87.765625 116.0625 88.640625 105.3125 C 88.890625 101.6875 89.140625 98.503906 89.390625 95.765625 Z M 89.390625 95.765625 "/></g></g></g><g clip-path="url(#75499728c7)"><g clip-path="url(#d79291e11f)"><g clip-path="url(#e38d83f8d3)"><path fill="#ffffff" d="M 662.519531 180.375 C 659.527344 177.191406 654.542969 177.023438 651.359375 180.011719 C 648.175781 183.003906 648.003906 187.988281 650.996094 191.171875 C 669.566406 211.007812 685.960938 226.195312 703.410156 238.308594 L 703.910156 238.628906 C 721.300781 250.644531 739.59375 259.492188 761.886719 266.6875 C 904.773438 312.84375 1093.386719 250.808594 1277.257812 190.328125 C 1532.867188 106.234375 1779.160156 25.214844 1869.257812 249.46875 C 1870.867188 253.5 1875.46875 255.492188 1879.523438 253.855469 C 1883.582031 252.246094 1885.546875 247.644531 1883.914062 243.589844 C 1788.304688 5.644531 1535.140625 88.914062 1272.367188 175.355469 C 1090.871094 235.070312 904.726562 296.308594 766.667969 251.722656 C 745.894531 245.007812 728.910156 236.804688 712.839844 225.710938 L 712.390625 225.363281 C 696.050781 214.007812 680.410156 199.503906 662.542969 180.398438 Z M 662.519531 180.375 " fill-opacity="1" fill-rule="evenodd"/></g></g></g><g fill="#ffffff" fill-opacity="1"><g transform="translate(981.172976, 481.208133)"><g><path d="M 31 0.734375 C 27.300781 0.734375 23.84375 0.046875 20.625 -1.328125 C 17.40625 -2.703125 14.585938 -4.59375 12.171875 -7 C 9.765625 -9.414062 7.867188 -12.234375 6.484375 -15.453125 C 5.109375 -18.679688 4.421875 -22.140625 4.421875 -25.828125 C 4.421875 -29.515625 5.109375 -32.96875 6.484375 -36.1875 C 7.867188 -39.414062 9.765625 -42.234375 12.171875 -44.640625 C 14.585938 -47.054688 17.40625 -48.953125 20.625 -50.328125 C 23.84375 -51.703125 27.300781 -52.390625 31 -52.390625 C 34.539062 -52.390625 37.613281 -51.820312 40.21875 -50.6875 C 42.820312 -49.5625 45.007812 -48.335938 46.78125 -47.015625 C 48.800781 -45.429688 50.550781 -43.65625 52.03125 -41.6875 L 48.34375 -38.375 C 47.15625 -40.050781 45.726562 -41.523438 44.0625 -42.796875 C 42.632812 -43.929688 40.835938 -44.953125 38.671875 -45.859375 C 36.503906 -46.773438 33.945312 -47.234375 31 -47.234375 C 28.039062 -47.234375 25.28125 -46.691406 22.71875 -45.609375 C 20.164062 -44.523438 17.941406 -43.023438 16.046875 -41.109375 C 14.148438 -39.191406 12.660156 -36.925781 11.578125 -34.3125 C 10.503906 -31.707031 9.96875 -28.878906 9.96875 -25.828125 C 9.96875 -22.773438 10.503906 -19.945312 11.578125 -17.34375 C 12.660156 -14.738281 14.148438 -12.472656 16.046875 -10.546875 C 17.941406 -8.628906 20.164062 -7.128906 22.71875 -6.046875 C 25.28125 -4.960938 28.039062 -4.421875 31 -4.421875 C 33.945312 -4.421875 36.523438 -4.875 38.734375 -5.78125 C 40.953125 -6.695312 42.800781 -7.722656 44.28125 -8.859375 C 46 -10.140625 47.472656 -11.613281 48.703125 -13.28125 L 52.390625 -9.96875 C 50.867188 -7.945312 49.050781 -6.148438 46.9375 -4.578125 C 45.113281 -3.242188 42.882812 -2.023438 40.25 -0.921875 C 37.625 0.179688 34.539062 0.734375 31 0.734375 Z M 31 0.734375 "/></g></g></g><g fill="#ffffff" fill-opacity="1"><g transform="translate(1083.75203, 481.208133)"><g><path d="M 31 0.734375 C 27.300781 0.734375 23.84375 0.046875 20.625 -1.328125 C 17.40625 -2.703125 14.585938 -4.59375 12.171875 -7 C 9.765625 -9.414062 7.867188 -12.234375 6.484375 -15.453125 C 5.109375 -18.679688 4.421875 -22.140625 4.421875 -25.828125 C 4.421875 -29.515625 5.109375 -32.96875 6.484375 -36.1875 C 7.867188 -39.414062 9.765625 -42.234375 12.171875 -44.640625 C 14.585938 -47.054688 17.40625 -48.953125 20.625 -50.328125 C 23.84375 -51.703125 27.300781 -52.390625 31 -52.390625 C 34.6875 -52.390625 38.140625 -51.703125 41.359375 -50.328125 C 44.585938 -48.953125 47.40625 -47.054688 49.8125 -44.640625 C 52.21875 -42.234375 54.109375 -39.414062 55.484375 -36.1875 C 56.867188 -32.96875 57.5625 -29.515625 57.5625 -25.828125 C 57.5625 -22.140625 56.867188 -18.679688 55.484375 -15.453125 C 54.109375 -12.234375 52.21875 -9.414062 49.8125 -7 C 47.40625 -4.59375 44.585938 -2.703125 41.359375 -1.328125 C 38.140625 0.046875 34.6875 0.734375 31 0.734375 Z M 31 -4.421875 C 33.945312 -4.421875 36.695312 -4.960938 39.25 -6.046875 C 41.8125 -7.128906 44.039062 -8.628906 45.9375 -10.546875 C 47.832031 -12.472656 49.320312 -14.738281 50.40625 -17.34375 C 51.488281 -19.945312 52.03125 -22.773438 52.03125 -25.828125 C 52.03125 -28.878906 51.488281 -31.707031 50.40625 -34.3125 C 49.320312 -36.925781 47.832031 -39.191406 45.9375 -41.109375 C 44.039062 -43.023438 41.8125 -44.523438 39.25 -45.609375 C 36.695312 -46.691406 33.945312 -47.234375 31 -47.234375 C 28.039062 -47.234375 25.28125 -46.691406 22.71875 -45.609375 C 20.164062 -44.523438 17.941406 -43.023438 16.046875 -41.109375 C 14.148438 -39.191406 12.660156 -36.925781 11.578125 -34.3125 C 10.503906 -31.707031 9.96875 -28.878906 9.96875 -25.828125 C 9.96875 -22.773438 10.503906 -19.945312 11.578125 -17.34375 C 12.660156 -14.738281 14.148438 -12.472656 16.046875 -10.546875 C 17.941406 -8.628906 20.164062 -7.128906 22.71875 -6.046875 C 25.28125 -4.960938 28.039062 -4.421875 31 -4.421875 Z M 31 -4.421875 "/></g></g></g><g fill="#ffffff" fill-opacity="1"><g transform="translate(1192.972435, 481.208133)"><g><path d="M 7.75 -51.65625 L 12.546875 -51.65625 L 44.28125 -9.96875 L 44.28125 -51.65625 L 49.8125 -51.65625 L 49.8125 0 L 45.015625 0 L 13.28125 -41.6875 L 13.28125 0 L 7.75 0 Z M 7.75 -51.65625 "/></g></g></g><g fill="#ffffff" fill-opacity="1"><g transform="translate(1297.765292, 481.208133)"><g><path d="M 7.75 -51.65625 L 12.546875 -51.65625 L 44.28125 -9.96875 L 44.28125 -51.65625 L 49.8125 -51.65625 L 49.8125 0 L 45.015625 0 L 13.28125 -41.6875 L 13.28125 0 L 7.75 0 Z M 7.75 -51.65625 "/></g></g></g><g fill="#ffffff" fill-opacity="1"><g transform="translate(1402.558149, 481.208133)"><g><path d="M 7.75 -51.65625 L 43.171875 -51.65625 L 43.171875 -46.484375 L 13.28125 -46.484375 L 13.28125 -29.515625 L 37.265625 -29.515625 L 37.265625 -24.359375 L 13.28125 -24.359375 L 13.28125 -5.171875 L 43.90625 -5.171875 L 43.90625 0 L 7.75 0 Z M 7.75 -51.65625 "/></g></g></g><g fill="#ffffff" fill-opacity="1"><g transform="translate(1497.019967, 481.208133)"><g><path d="M 31 0.734375 C 27.300781 0.734375 23.84375 0.046875 20.625 -1.328125 C 17.40625 -2.703125 14.585938 -4.59375 12.171875 -7 C 9.765625 -9.414062 7.867188 -12.234375 6.484375 -15.453125 C 5.109375 -18.679688 4.421875 -22.140625 4.421875 -25.828125 C 4.421875 -29.515625 5.109375 -32.96875 6.484375 -36.1875 C 7.867188 -39.414062 9.765625 -42.234375 12.171875 -44.640625 C 14.585938 -47.054688 17.40625 -48.953125 20.625 -50.328125 C 23.84375 -51.703125 27.300781 -52.390625 31 -52.390625 C 34.539062 -52.390625 37.613281 -51.820312 40.21875 -50.6875 C 42.820312 -49.5625 45.007812 -48.335938 46.78125 -47.015625 C 48.800781 -45.429688 50.550781 -43.65625 52.03125 -41.6875 L 48.34375 -38.375 C 47.15625 -40.050781 45.726562 -41.523438 44.0625 -42.796875 C 42.632812 -43.929688 40.835938 -44.953125 38.671875 -45.859375 C 36.503906 -46.773438 33.945312 -47.234375 31 -47.234375 C 28.039062 -47.234375 25.28125 -46.691406 22.71875 -45.609375 C 20.164062 -44.523438 17.941406 -43.023438 16.046875 -41.109375 C 14.148438 -39.191406 12.660156 -36.925781 11.578125 -34.3125 C 10.503906 -31.707031 9.96875 -28.878906 9.96875 -25.828125 C 9.96875 -22.773438 10.503906 -19.945312 11.578125 -17.34375 C 12.660156 -14.738281 14.148438 -12.472656 16.046875 -10.546875 C 17.941406 -8.628906 20.164062 -7.128906 22.71875 -6.046875 C 25.28125 -4.960938 28.039062 -4.421875 31 -4.421875 C 33.945312 -4.421875 36.523438 -4.875 38.734375 -5.78125 C 40.953125 -6.695312 42.800781 -7.722656 44.28125 -8.859375 C 46 -10.140625 47.472656 -11.613281 48.703125 -13.28125 L 52.390625 -9.96875 C 50.867188 -7.945312 49.050781 -6.148438 46.9375 -4.578125 C 45.113281 -3.242188 42.882812 -2.023438 40.25 -0.921875 C 37.625 0.179688 34.539062 0.734375 31 0.734375 Z M 31 0.734375 "/></g></g></g><g fill="#ffffff" fill-opacity="1"><g transform="translate(1599.599033, 481.208133)"><g><path d="M 17.71875 -46.484375 L 1.46875 -46.484375 L 1.46875 -51.65625 L 39.484375 -51.65625 L 39.484375 -46.484375 L 23.25 -46.484375 L 23.25 0 L 17.71875 0 Z M 17.71875 -46.484375 "/></g></g></g></svg>