<svg width="60" height="60" viewBox="0 0 60 60" fill="none" xmlns="http://www.w3.org/2000/svg">
<path fill-rule="evenodd" clip-rule="evenodd" d="M30.0207 5.41658C16.1849 5.41658 5 16.6839 5 30.6232C5 41.7656 12.1665 51.1974 22.1084 54.5356C23.3514 54.7865 23.8067 53.9932 23.8067 53.3259C23.8067 52.7415 23.7658 50.7385 23.7658 48.6514C16.8056 50.1541 15.3562 45.6466 15.3562 45.6466C14.2377 42.7253 12.5804 41.9745 12.5804 41.9745C10.3023 40.4304 12.7463 40.4304 12.7463 40.4304C15.2733 40.5973 16.5992 43.0178 16.5992 43.0178C18.8358 46.8569 22.4398 45.7721 23.8897 45.1043C24.0966 43.4767 24.7599 42.3499 25.4641 41.7241C19.9128 41.1397 14.0723 38.9697 14.0723 29.2875C14.0723 26.5331 15.0658 24.2797 16.6402 22.5271C16.3918 21.9012 15.5217 19.3133 16.8891 15.8496C16.8891 15.8496 19.0017 15.1818 23.7653 18.437C25.8047 17.8853 27.9079 17.6046 30.0207 17.6022C32.1333 17.6022 34.2869 17.8947 36.2756 18.437C41.0396 15.1818 43.1523 15.8496 43.1523 15.8496C44.5197 19.3133 43.6491 21.9012 43.4007 22.5271C45.0165 24.2797 45.9691 26.5331 45.9691 29.2875C45.9691 38.9697 40.1285 41.0977 34.5358 41.7241C35.4475 42.5169 36.2341 44.019 36.2341 46.398C36.2341 49.7782 36.1931 52.491 36.1931 53.3253C36.1931 53.9932 36.649 54.7865 37.8914 54.5361C47.8333 51.1968 54.9999 41.7656 54.9999 30.6232C55.0409 16.6839 43.815 5.41658 30.0207 5.41658Z" fill="black"/>
</svg>
