<svg width="60" height="60" viewBox="0 0 60 60" fill="none" xmlns="http://www.w3.org/2000/svg">
<path d="M52.5 10.8088V49.1912C52.5 50.0687 52.1514 50.9103 51.5309 51.5309C50.9103 52.1514 50.0687 52.5 49.1912 52.5H10.8088C9.93127 52.5 9.08966 52.1514 8.46913 51.5309C7.84861 50.9103 7.5 50.0687 7.5 49.1912V10.8088C7.5 9.93127 7.84861 9.08966 8.46913 8.46913C9.08966 7.84861 9.93127 7.5 10.8088 7.5H49.1912C50.0687 7.5 50.9103 7.84861 51.5309 8.46913C52.1514 9.08966 52.5 9.93127 52.5 10.8088V10.8088ZM20.7353 24.7059H14.1176V45.8824H20.7353V24.7059ZM21.3309 17.4265C21.3344 16.9259 21.2392 16.4295 21.0509 15.9657C20.8625 15.5019 20.5847 15.0798 20.2332 14.7234C19.8817 14.367 19.4634 14.0833 19.0023 13.8885C18.5411 13.6937 18.0462 13.5917 17.5456 13.5882H17.4265C16.4085 13.5882 15.4322 13.9926 14.7124 14.7124C13.9926 15.4322 13.5882 16.4085 13.5882 17.4265C13.5882 18.4444 13.9926 19.4207 14.7124 20.1405C15.4322 20.8603 16.4085 21.2647 17.4265 21.2647V21.2647C17.9271 21.277 18.4252 21.1906 18.8924 21.0103C19.3596 20.83 19.7867 20.5595 20.1493 20.2141C20.5118 19.8687 20.8028 19.4553 21.0056 18.9974C21.2083 18.5395 21.3189 18.0462 21.3309 17.5456V17.4265ZM45.8824 33.0176C45.8824 26.6515 41.8324 24.1765 37.8088 24.1765C36.4914 24.1105 35.1798 24.3911 34.0047 24.9903C32.8296 25.5894 31.8321 26.4862 31.1118 27.5912H30.9265V24.7059H24.7059V45.8824H31.3235V34.6191C31.2279 33.4656 31.5912 32.3209 32.3347 31.4337C33.0781 30.5465 34.1416 29.9885 35.2941 29.8809H35.5456C37.65 29.8809 39.2118 31.2044 39.2118 34.5397V45.8824H45.8294L45.8824 33.0176Z" fill="black"/>
</svg>
